<svg xmlns="http://www.w3.org/2000/svg" width="390" height="844" viewBox="0 0 390 844">
  <defs>
    <filter id="shadow" x="-20%" y="-20%" width="140%" height="140%">
      <feDropShadow dx="0" dy="8" stdDeviation="12" flood-color="#0f172a" flood-opacity="0.06"/>
    </filter>
    <style>
      text { font-family: -apple-system, BlinkMacSystemFont, "PingFang SC", "Segoe UI", sans-serif; letter-spacing: 0; }
      .title { fill: #101828; font-size: 31px; font-weight: 760; }
      .muted { fill: #667085; font-size: 13px; }
      .section { fill: #101828; font-size: 15px; font-weight: 720; }
      .body { fill: #344054; font-size: 14px; }
    </style>
  </defs>
  <rect width="390" height="844" fill="#f5f7fb"/>
  <rect x="16" y="16" width="358" height="812" rx="26" fill="#fbfcfe"/>

  <text x="30" y="68" class="muted">穿搭建议</text>
  <text x="30" y="106" class="title">生成今天的搭配</text>
  <text x="30" y="132" class="muted">一个页面只做一件事：选择场景，然后生成</text>

  <rect x="28" y="164" width="334" height="104" rx="8" fill="#ffffff" filter="url(#shadow)"/>
  <text x="48" y="200" class="section">上下文</text>
  <text x="48" y="231" fill="#111827" font-size="22" font-weight="760">23C · 多云</text>
  <text x="236" y="226" class="muted">浦东新区</text>
  <path d="M304 207c10-18 25-17 34 0" fill="none" stroke="#5167f6" stroke-width="3" stroke-linecap="round"/>

  <rect x="28" y="292" width="334" height="170" rx="8" fill="#ffffff" filter="url(#shadow)"/>
  <text x="48" y="328" class="section">场景</text>
  <rect x="48" y="350" width="78" height="38" rx="19" fill="#111827"/>
  <text x="73" y="374" fill="#fff" font-size="13" font-weight="720">通勤</text>
  <rect x="136" y="350" width="78" height="38" rx="19" fill="#eef2ff"/>
  <text x="161" y="374" fill="#344054" font-size="13" font-weight="650">休闲</text>
  <rect x="224" y="350" width="78" height="38" rx="19" fill="#eef2ff"/>
  <text x="249" y="374" fill="#344054" font-size="13" font-weight="650">约会</text>
  <rect x="48" y="404" width="98" height="38" rx="19" fill="#eef2ff"/>
  <text x="73" y="428" fill="#344054" font-size="13" font-weight="650">正式</text>
  <rect x="156" y="404" width="98" height="38" rx="19" fill="#eef2ff"/>
  <text x="181" y="428" fill="#344054" font-size="13" font-weight="650">户外</text>

  <rect x="28" y="486" width="334" height="112" rx="8" fill="#ffffff" filter="url(#shadow)"/>
  <text x="48" y="522" class="section">可选调整</text>
  <rect x="48" y="544" width="294" height="38" rx="8" fill="#f2f4f7"/>
  <text x="64" y="568" class="muted">覆盖体感温度，例如 18</text>

  <rect x="28" y="620" width="334" height="78" rx="8" fill="#eef2ff"/>
  <text x="48" y="652" class="section">生成前预览</text>
  <text x="48" y="678" class="muted">会结合天气、默认偏好和衣橱可穿状态</text>

  <rect x="28" y="724" width="334" height="58" rx="12" fill="#111827"/>
  <text x="151" y="760" fill="#ffffff" font-size="16" font-weight="760">生成穿搭</text>
</svg>
